<?xml version="1.0" encoding="UTF-8" ?>
<!DOCTYPE svg PUBLIC "-//W3C//DTD SVG 1.1//EN" "http://www.w3.org/Graphics/SVG/1.1/DTD/svg11.dtd">
<svg width="600pt" height="600pt" viewBox="0 0 600 600" version="1.1" xmlns="http://www.w3.org/2000/svg">
<g id="#ffffffff">
<path fill="#ffffff" opacity="1.00" d=" M 0.00 0.00 L 600.00 0.00 L 600.00 600.00 L 0.00 600.00 L 0.00 0.00 M 406.48 127.35 C 392.37 136.38 383.56 153.20 384.61 169.97 C 385.02 180.32 389.05 190.36 395.58 198.35 C 404.14 208.94 409.48 222.08 410.41 235.69 C 416.51 235.70 422.60 235.73 428.70 235.69 C 428.69 222.75 428.77 209.81 428.66 196.87 C 419.05 195.63 410.44 188.55 407.61 179.25 C 404.23 169.34 407.96 157.60 416.33 151.34 C 422.82 146.16 431.86 144.79 439.74 147.19 C 445.76 149.05 450.81 153.41 454.04 158.76 C 458.49 166.22 458.60 176.01 454.42 183.61 C 450.58 190.73 443.26 195.81 435.23 196.89 C 435.21 209.82 435.21 222.76 435.22 235.70 C 441.34 235.72 447.45 235.69 453.57 235.70 C 454.95 221.95 459.79 208.38 468.76 197.73 C 480.45 183.45 482.70 162.30 474.18 145.91 C 467.66 132.65 454.61 122.85 440.03 120.39 C 428.50 118.25 416.23 120.88 406.48 127.35 M 278.93 121.32 C 264.44 124.49 251.07 132.23 240.92 143.02 C 238.22 145.81 237.84 150.30 239.47 153.74 C 242.14 159.45 250.46 161.69 255.13 157.06 C 261.07 151.02 267.91 145.72 275.83 142.54 C 291.41 135.96 309.99 136.94 324.75 145.21 C 328.40 147.27 332.16 149.42 334.75 152.81 C 333.09 158.17 326.44 160.15 324.99 165.50 C 336.38 164.94 347.78 164.41 359.13 163.36 C 359.09 152.06 360.94 140.81 360.56 129.51 C 360.18 129.60 359.43 129.76 359.06 129.84 C 355.90 133.09 352.73 136.35 349.45 139.47 C 347.64 141.47 345.13 139.71 343.68 138.22 C 326.49 122.59 301.56 116.17 278.93 121.32 M 159.93 120.79 C 148.95 122.39 138.53 127.82 131.21 136.21 C 123.28 145.08 118.92 157.07 119.41 168.97 C 119.70 182.02 125.85 194.72 135.77 203.18 C 146.82 212.88 162.61 216.72 176.91 213.35 C 188.91 210.76 199.60 203.07 206.17 192.74 C 213.12 181.96 215.33 168.27 212.07 155.86 C 209.34 144.69 202.23 134.65 192.63 128.33 C 183.16 121.86 171.26 119.30 159.93 120.79 M 424.63 153.79 C 416.48 157.07 411.28 166.42 413.10 175.07 C 414.60 183.54 422.36 190.45 431.02 190.65 C 437.46 191.05 443.92 187.85 447.58 182.56 C 452.07 176.42 452.18 167.61 448.10 161.24 C 443.38 153.52 432.95 150.26 424.63 153.79 M 191.50 214.75 C 178.16 221.87 161.73 222.91 147.60 217.54 C 138.98 214.28 131.20 208.77 125.37 201.62 C 124.54 200.37 122.73 201.20 122.75 202.61 C 118.48 213.18 118.12 225.33 122.02 236.06 C 126.31 248.27 135.92 258.50 147.84 263.54 C 160.41 269.00 175.39 268.56 187.60 262.32 C 199.80 256.34 209.03 244.68 212.13 231.46 C 214.76 221.01 213.46 209.77 209.00 200.01 C 204.18 205.98 198.33 211.19 191.50 214.75 M 410.37 242.21 C 410.46 245.45 410.19 248.80 411.23 251.93 C 413.23 258.82 419.01 264.54 425.99 266.30 C 433.10 267.72 441.24 266.83 446.63 261.53 C 452.15 256.80 454.06 249.25 453.53 242.22 C 439.14 242.11 424.76 242.14 410.37 242.21 M 122.48 287.51 C 122.49 287.91 122.51 288.71 122.52 289.12 C 126.42 292.42 130.84 295.19 134.28 298.98 C 134.28 299.51 134.30 300.56 134.30 301.09 C 130.99 306.05 127.62 311.03 125.35 316.59 C 118.37 332.50 117.32 350.94 122.49 367.54 C 126.99 382.46 136.50 395.75 148.96 405.08 C 153.36 408.42 160.38 406.94 163.05 402.06 C 166.06 397.85 164.78 391.46 160.47 388.63 C 148.66 379.90 140.45 366.42 138.25 351.89 C 135.84 337.99 139.36 323.45 146.94 311.64 C 148.09 311.56 149.37 310.79 150.45 311.51 C 154.24 314.02 157.50 317.25 161.31 319.74 C 161.40 319.10 161.56 317.82 161.65 317.18 C 159.92 306.66 157.98 296.18 156.20 285.67 C 144.96 286.28 133.70 286.65 122.48 287.51 M 452.81 289.91 C 449.78 293.12 449.58 298.39 452.13 301.94 C 459.81 313.68 463.20 328.27 460.83 342.15 C 458.71 356.59 450.54 369.95 438.85 378.63 C 437.38 379.07 435.45 378.84 434.75 377.29 C 432.59 374.04 430.65 370.66 428.60 367.34 C 428.15 367.36 427.26 367.40 426.81 367.41 C 424.99 378.38 422.79 389.28 421.11 400.27 C 427.78 402.44 434.50 404.44 441.22 406.45 C 445.40 407.67 449.49 409.33 453.85 409.87 C 452.54 404.62 448.26 400.76 446.28 395.79 C 445.86 393.91 447.22 392.60 448.71 391.78 C 467.69 379.01 480.01 356.89 480.66 334.01 C 481.36 318.48 476.91 302.72 468.13 289.91 C 464.59 284.87 456.51 285.30 452.81 289.91 M 264.43 309.72 C 261.68 316.40 262.93 323.74 262.64 330.75 C 264.29 329.88 265.98 329.07 267.71 328.35 C 268.12 324.24 268.65 320.03 270.65 316.34 C 274.72 307.84 283.62 301.90 293.05 301.52 C 300.04 301.43 307.22 300.84 313.95 303.21 C 319.77 302.97 324.10 297.56 325.91 292.40 C 313.60 292.24 301.28 292.37 288.96 292.34 C 278.24 292.42 268.14 299.70 264.43 309.72 M 329.13 301.00 C 326.47 303.15 324.32 306.04 321.25 307.77 C 327.41 312.63 330.87 320.41 330.94 328.21 C 332.76 328.96 334.55 329.77 336.31 330.69 C 336.16 324.40 336.46 318.10 336.17 311.82 C 335.57 307.56 333.62 302.36 329.13 301.00 M 285.83 309.86 C 278.11 313.20 273.65 321.85 274.27 330.08 C 274.86 332.84 272.60 334.77 269.99 334.61 C 263.54 335.08 260.30 343.78 264.59 348.50 C 266.50 351.41 270.20 351.19 273.09 352.32 C 275.04 353.94 273.95 356.87 274.34 359.07 C 274.61 369.33 283.80 378.12 294.01 378.26 C 300.40 378.11 307.28 379.21 313.18 376.13 C 319.70 373.02 324.19 366.14 324.43 358.93 C 324.66 356.49 323.89 353.60 326.02 351.80 C 328.84 351.65 331.98 351.30 333.93 348.98 C 337.26 345.64 336.98 339.70 333.45 336.62 C 331.09 334.34 327.56 334.72 324.74 333.40 C 324.33 328.72 324.80 323.78 322.55 319.49 C 319.39 312.38 311.77 307.81 304.08 307.77 C 297.98 307.93 291.48 306.93 285.83 309.86 M 204.56 321.37 C 206.34 325.42 209.35 329.25 213.84 330.37 C 216.88 329.97 219.78 328.68 222.89 328.72 C 229.34 328.80 236.17 327.95 242.16 330.97 C 248.55 333.65 252.56 339.67 255.57 345.62 C 255.87 340.48 257.24 334.83 255.31 329.96 C 250.47 325.10 244.01 321.30 236.96 321.32 C 226.16 321.29 215.36 321.25 204.56 321.37 M 344.03 330.11 C 342.99 334.89 344.03 339.99 343.86 344.89 C 347.29 340.11 349.95 334.38 355.38 331.51 C 362.15 327.16 370.47 328.12 378.11 328.22 C 380.77 328.19 383.22 329.53 385.85 329.64 C 390.46 328.81 393.53 324.74 395.18 320.64 C 384.47 320.61 373.75 320.61 363.04 320.63 C 355.70 320.69 348.64 324.54 344.03 330.11 M 398.46 328.03 C 396.73 330.41 394.58 332.45 392.16 334.11 C 397.36 338.59 400.30 345.27 400.53 352.10 C 401.86 352.65 403.19 353.23 404.52 353.83 C 404.50 348.86 404.59 343.89 404.48 338.92 C 404.50 334.58 402.31 330.17 398.46 328.03 M 195.37 338.91 C 195.24 344.14 195.23 349.38 195.45 354.61 C 196.74 353.89 198.04 353.20 199.34 352.49 C 199.49 345.75 202.52 339.17 207.65 334.76 C 205.37 333.28 203.52 331.30 201.72 329.30 C 201.34 329.31 200.58 329.34 200.20 329.35 C 197.28 331.58 195.41 335.22 195.37 338.91 M 214.24 337.19 C 209.22 339.63 205.77 344.65 204.68 350.05 C 204.22 352.87 204.86 355.86 203.61 358.53 C 201.29 359.03 198.69 359.14 196.81 360.79 C 192.93 363.75 193.21 370.45 197.33 373.09 C 199.30 374.89 202.78 373.61 204.24 376.05 C 204.59 379.31 204.15 382.71 205.35 385.84 C 207.72 393.24 215.23 398.47 222.98 398.33 C 227.69 398.17 232.58 398.90 237.13 397.29 C 244.35 394.95 249.63 387.62 249.40 380.00 C 249.65 378.23 248.86 375.76 250.88 374.81 C 253.13 374.19 255.75 374.22 257.51 372.46 C 261.31 369.18 260.52 362.25 256.00 359.94 C 254.01 358.69 250.93 359.50 249.59 357.28 C 249.24 354.23 249.66 351.07 248.69 348.11 C 246.51 340.53 238.99 334.89 231.07 335.19 C 225.45 335.37 219.37 334.29 214.24 337.19 M 357.97 337.96 C 352.05 341.88 349.68 349.29 350.39 356.13 C 350.09 356.62 349.49 357.58 349.18 358.06 C 345.37 358.14 341.08 359.87 340.12 363.96 C 338.26 369.33 343.57 374.58 348.93 373.91 C 349.28 374.36 350.00 375.26 350.35 375.71 C 349.71 382.61 351.91 390.10 357.88 394.13 C 363.55 398.71 371.18 397.54 377.93 397.60 C 386.40 397.40 394.09 390.50 395.20 382.11 C 395.64 379.71 395.00 377.13 395.88 374.85 C 397.84 373.48 400.53 373.81 402.48 372.36 C 406.52 370.01 406.80 363.72 403.56 360.58 C 401.48 358.39 398.20 358.55 395.59 357.39 C 395.31 353.93 395.68 350.35 394.51 347.02 C 392.12 339.69 384.75 334.27 376.99 334.49 C 370.57 334.51 363.33 333.62 357.97 337.96 M 290.51 384.39 C 290.82 389.29 289.58 394.56 291.76 399.16 C 294.65 404.81 303.53 405.54 307.33 400.49 C 310.90 395.86 309.01 389.63 309.51 384.26 C 303.19 384.84 296.83 384.79 290.51 384.39 M 251.30 432.99 C 251.17 446.34 251.23 459.69 251.25 473.04 C 251.14 477.07 254.87 480.65 258.89 480.38 C 286.28 480.39 313.67 480.38 341.07 480.38 C 345.12 480.71 348.90 477.01 348.75 472.97 C 348.77 459.65 348.81 446.33 348.72 433.02 C 348.06 415.47 332.63 399.91 315.05 399.29 C 313.56 404.46 309.15 408.54 303.96 409.83 C 296.24 412.06 287.02 407.20 285.04 399.29 C 267.43 399.86 252.00 415.42 251.30 432.99 M 219.15 403.24 C 219.30 407.24 218.66 411.38 219.80 415.27 C 221.93 420.51 229.76 421.59 233.29 417.27 C 236.52 413.41 234.95 407.99 235.35 403.41 C 229.95 403.48 224.54 403.65 219.15 403.24 M 364.70 403.41 C 364.98 407.45 364.02 411.75 365.60 415.60 C 367.79 420.43 375.06 421.45 378.60 417.60 C 382.24 413.75 380.41 407.99 380.84 403.25 C 375.47 403.63 370.08 403.50 364.70 403.41 M 386.76 416.37 C 384.64 421.64 379.87 426.04 374.01 426.39 C 367.38 427.09 361.08 422.55 358.97 416.36 C 356.55 416.61 354.21 417.23 351.90 417.94 C 353.39 423.19 355.20 428.43 355.22 433.96 C 355.32 446.66 355.23 459.36 355.27 472.06 C 355.43 474.99 354.34 477.74 353.26 480.40 C 371.50 480.37 389.74 480.38 407.98 480.39 C 411.00 480.68 413.91 478.91 415.31 476.28 C 416.21 473.63 415.82 470.78 415.91 468.04 C 415.77 460.23 416.14 452.40 415.71 444.61 C 414.27 429.87 401.40 417.71 386.76 416.37 M 184.23 445.50 C 183.95 454.68 184.14 463.87 184.13 473.06 C 183.89 477.21 187.82 480.78 191.91 480.39 C 210.19 480.40 228.47 480.36 246.75 480.40 C 245.68 477.72 244.57 474.96 244.73 472.01 C 244.77 459.67 244.72 447.34 244.76 435.00 C 244.81 428.99 246.23 423.06 248.68 417.58 C 246.20 416.86 243.64 416.42 241.06 416.37 C 238.88 422.96 231.80 427.56 224.88 426.25 C 219.47 425.47 215.24 421.30 213.26 416.38 C 198.32 417.70 185.21 430.40 184.23 445.50 Z" />
<path fill="#ffffff" opacity="1.00" d=" M 163.59 128.71 C 164.78 126.53 168.15 126.72 169.37 128.78 C 169.85 132.23 169.53 135.72 169.65 139.18 C 174.14 138.99 179.29 138.75 182.64 142.33 C 187.22 146.17 186.88 152.70 186.23 158.07 C 185.68 158.43 184.58 159.15 184.03 159.51 C 182.80 159.33 181.69 158.89 180.70 158.19 C 179.47 155.06 181.03 151.46 179.43 148.44 C 178.44 146.90 176.84 145.43 174.89 145.49 C 169.23 145.40 163.56 145.39 157.90 145.50 C 154.74 145.67 152.41 148.84 152.75 151.92 C 152.77 156.15 151.60 162.56 156.95 164.06 C 163.28 164.65 169.67 163.98 176.01 164.38 C 181.72 164.98 186.39 170.26 186.51 175.96 C 186.59 178.98 186.63 182.01 186.46 185.03 C 186.11 189.80 182.39 193.95 177.92 195.39 C 175.20 196.00 172.39 195.78 169.64 195.79 C 169.54 199.22 169.84 202.68 169.37 206.10 C 168.25 208.47 163.88 208.37 163.48 205.55 C 163.06 202.46 163.37 199.32 163.42 196.21 C 161.00 195.70 158.53 195.87 156.10 195.61 C 150.35 194.59 145.89 188.87 146.35 183.03 C 146.55 180.62 145.59 177.50 147.88 175.82 C 150.03 174.56 152.99 176.41 152.73 178.90 C 152.64 182.63 152.22 187.83 156.68 189.24 C 162.71 189.78 168.81 189.40 174.87 189.45 C 178.16 189.41 180.43 186.04 180.21 182.94 C 180.27 178.65 181.22 172.22 175.78 170.77 C 169.81 170.37 163.81 170.79 157.84 170.59 C 151.84 170.50 146.44 165.10 146.39 159.10 C 146.33 156.05 146.28 152.99 146.43 149.94 C 146.72 145.78 149.56 142.05 153.24 140.23 C 156.38 138.62 160.04 139.45 163.40 138.77 C 163.38 135.42 162.98 132.02 163.59 128.71 Z" />
<path fill="#ffffff" opacity="1.00" d=" M 180.69 224.94 C 182.53 223.29 186.63 223.85 186.48 226.82 C 186.32 232.96 187.98 240.30 183.04 245.09 C 179.64 248.86 174.31 248.94 169.63 248.68 C 169.60 252.16 169.71 255.66 169.41 259.14 C 168.58 259.69 167.77 260.24 166.95 260.80 C 165.64 260.46 163.99 260.11 163.51 258.65 C 163.02 255.36 163.38 252.01 163.34 248.70 C 158.67 248.87 153.24 248.97 149.89 245.07 C 145.74 241.34 146.06 235.30 146.57 230.24 C 147.42 227.39 152.44 227.78 152.63 230.82 C 152.85 233.93 152.54 237.12 153.62 240.11 C 155.01 240.87 156.23 242.22 157.92 242.21 C 163.29 242.38 168.67 242.26 174.04 242.28 C 176.99 242.57 179.83 240.18 180.09 237.23 C 180.58 233.16 179.63 228.95 180.69 224.94 Z" />
</g>
<g id="#010101ff">
<path fill="#010101" opacity="1.00" d=" M 406.48 127.35 C 416.23 120.88 428.50 118.25 440.03 120.39 C 454.61 122.85 467.66 132.65 474.18 145.91 C 482.70 162.30 480.45 183.45 468.76 197.73 C 459.79 208.38 454.95 221.95 453.57 235.70 C 447.45 235.69 441.34 235.72 435.22 235.70 C 435.21 222.76 435.21 209.82 435.23 196.89 C 443.26 195.81 450.58 190.73 454.42 183.61 C 458.60 176.01 458.49 166.22 454.04 158.76 C 450.81 153.41 445.76 149.05 439.74 147.19 C 431.86 144.79 422.82 146.16 416.33 151.34 C 407.96 157.60 404.23 169.34 407.61 179.25 C 410.44 188.55 419.05 195.63 428.66 196.87 C 428.77 209.81 428.69 222.75 428.70 235.69 C 422.60 235.73 416.51 235.70 410.41 235.69 C 409.48 222.08 404.14 208.94 395.58 198.35 C 389.05 190.36 385.02 180.32 384.61 169.97 C 383.56 153.20 392.37 136.38 406.48 127.35 Z" />
<path fill="#010101" opacity="1.00" d=" M 278.93 121.32 C 301.56 116.17 326.49 122.59 343.68 138.22 C 345.13 139.71 347.64 141.47 349.45 139.47 C 352.73 136.35 355.90 133.09 359.06 129.84 C 359.43 129.76 360.18 129.60 360.56 129.51 C 360.94 140.81 359.09 152.06 359.13 163.36 C 347.78 164.41 336.38 164.94 324.99 165.50 C 326.44 160.15 333.09 158.17 334.75 152.81 C 332.16 149.42 328.40 147.27 324.75 145.21 C 309.99 136.94 291.41 135.96 275.83 142.54 C 267.91 145.72 261.07 151.02 255.13 157.06 C 250.46 161.69 242.14 159.45 239.47 153.74 C 237.84 150.30 238.22 145.81 240.92 143.02 C 251.07 132.23 264.44 124.49 278.93 121.32 Z" />
<path fill="#010101" opacity="1.00" d=" M 159.93 120.79 C 171.26 119.30 183.16 121.86 192.63 128.33 C 202.23 134.65 209.34 144.69 212.07 155.86 C 215.33 168.27 213.12 181.96 206.17 192.74 C 199.60 203.07 188.91 210.76 176.91 213.35 C 162.61 216.72 146.82 212.88 135.77 203.18 C 125.85 194.72 119.70 182.02 119.41 168.97 C 118.92 157.07 123.28 145.08 131.21 136.21 C 138.53 127.82 148.95 122.39 159.93 120.79 M 163.59 128.71 C 162.98 132.02 163.38 135.42 163.40 138.77 C 160.04 139.45 156.38 138.62 153.24 140.23 C 149.56 142.05 146.72 145.78 146.43 149.94 C 146.28 152.99 146.33 156.05 146.39 159.10 C 146.44 165.10 151.84 170.50 157.84 170.59 C 163.81 170.79 169.81 170.37 175.78 170.77 C 181.22 172.22 180.27 178.65 180.21 182.94 C 180.43 186.04 178.16 189.41 174.87 189.45 C 168.81 189.40 162.71 189.78 156.68 189.24 C 152.22 187.83 152.64 182.63 152.73 178.90 C 152.99 176.41 150.03 174.56 147.88 175.82 C 145.59 177.50 146.55 180.62 146.35 183.03 C 145.89 188.87 150.35 194.59 156.10 195.61 C 158.53 195.87 161.00 195.70 163.42 196.21 C 163.37 199.32 163.06 202.46 163.48 205.55 C 163.88 208.37 168.25 208.47 169.37 206.10 C 169.84 202.68 169.54 199.22 169.64 195.79 C 172.39 195.78 175.20 196.00 177.92 195.39 C 182.39 193.95 186.11 189.80 186.46 185.03 C 186.63 182.01 186.59 178.98 186.51 175.96 C 186.39 170.26 181.72 164.98 176.01 164.38 C 169.67 163.98 163.28 164.65 156.95 164.06 C 151.60 162.56 152.77 156.15 152.75 151.92 C 152.41 148.84 154.74 145.67 157.90 145.50 C 163.56 145.39 169.23 145.40 174.89 145.49 C 176.84 145.43 178.44 146.90 179.43 148.44 C 181.03 151.46 179.47 155.06 180.70 158.19 C 181.69 158.89 182.80 159.33 184.03 159.51 C 184.58 159.15 185.68 158.43 186.23 158.07 C 186.88 152.70 187.22 146.17 182.64 142.33 C 179.29 138.75 174.14 138.99 169.65 139.18 C 169.53 135.72 169.85 132.23 169.37 128.78 C 168.15 126.72 164.78 126.53 163.59 128.71 Z" />
<path fill="#010101" opacity="1.00" d=" M 424.63 153.79 C 432.95 150.26 443.38 153.52 448.10 161.24 C 452.18 167.61 452.07 176.42 447.58 182.56 C 443.92 187.85 437.46 191.05 431.02 190.65 C 422.36 190.45 414.60 183.54 413.10 175.07 C 411.28 166.42 416.48 157.07 424.63 153.79 Z" />
<path fill="#010101" opacity="1.00" d=" M 191.50 214.75 C 198.33 211.19 204.18 205.98 209.00 200.01 C 213.46 209.77 214.76 221.01 212.13 231.46 C 209.03 244.68 199.80 256.34 187.60 262.32 C 175.39 268.56 160.41 269.00 147.84 263.54 C 135.92 258.50 126.31 248.27 122.02 236.06 C 118.12 225.33 118.48 213.18 122.75 202.61 C 122.73 201.20 124.54 200.37 125.37 201.62 C 131.20 208.77 138.98 214.28 147.60 217.54 C 161.73 222.91 178.16 221.87 191.50 214.75 M 180.69 224.94 C 179.63 228.95 180.58 233.16 180.09 237.23 C 179.83 240.18 176.99 242.57 174.04 242.28 C 168.67 242.26 163.29 242.38 157.92 242.21 C 156.23 242.22 155.01 240.87 153.62 240.11 C 152.54 237.12 152.85 233.93 152.63 230.82 C 152.44 227.78 147.42 227.39 146.57 230.24 C 146.06 235.30 145.74 241.34 149.89 245.07 C 153.24 248.97 158.67 248.87 163.34 248.70 C 163.38 252.01 163.02 255.36 163.51 258.65 C 163.99 260.11 165.64 260.46 166.95 260.80 C 167.77 260.24 168.58 259.69 169.41 259.14 C 169.71 255.66 169.60 252.16 169.63 248.68 C 174.31 248.94 179.64 248.86 183.04 245.09 C 187.98 240.30 186.32 232.96 186.48 226.82 C 186.63 223.85 182.53 223.29 180.69 224.94 Z" />
<path fill="#010101" opacity="1.00" d=" M 410.37 242.21 C 424.76 242.14 439.14 242.11 453.53 242.22 C 454.06 249.25 452.15 256.80 446.63 261.53 C 441.24 266.83 433.10 267.72 425.99 266.30 C 419.01 264.54 413.23 258.82 411.23 251.93 C 410.19 248.80 410.46 245.45 410.37 242.21 Z" />
<path fill="#010101" opacity="1.00" d=" M 122.48 287.51 C 133.70 286.65 144.96 286.28 156.20 285.67 C 157.98 296.18 159.92 306.66 161.65 317.18 C 161.56 317.82 161.40 319.10 161.31 319.74 C 157.50 317.25 154.24 314.02 150.45 311.51 C 149.37 310.79 148.09 311.56 146.94 311.64 C 139.36 323.45 135.84 337.99 138.25 351.89 C 140.45 366.42 148.66 379.90 160.47 388.63 C 164.78 391.46 166.06 397.85 163.05 402.06 C 160.38 406.94 153.36 408.42 148.96 405.08 C 136.50 395.75 126.99 382.46 122.49 367.54 C 117.32 350.94 118.37 332.50 125.35 316.59 C 127.62 311.03 130.99 306.05 134.30 301.09 C 134.30 300.56 134.28 299.51 134.28 298.98 C 130.84 295.19 126.42 292.42 122.52 289.12 C 122.51 288.71 122.49 287.91 122.48 287.51 Z" />
<path fill="#010101" opacity="1.00" d=" M 452.81 289.91 C 456.51 285.30 464.59 284.87 468.13 289.91 C 476.91 302.72 481.36 318.48 480.66 334.01 C 480.01 356.89 467.69 379.01 448.71 391.78 C 447.22 392.60 445.86 393.91 446.28 395.79 C 448.26 400.76 452.54 404.62 453.85 409.87 C 449.49 409.33 445.40 407.67 441.22 406.45 C 434.50 404.44 427.78 402.44 421.11 400.27 C 422.79 389.28 424.99 378.38 426.81 367.41 C 427.26 367.40 428.15 367.36 428.60 367.34 C 430.65 370.66 432.59 374.04 434.75 377.29 C 435.45 378.84 437.38 379.07 438.85 378.63 C 450.54 369.95 458.71 356.59 460.83 342.15 C 463.20 328.27 459.81 313.68 452.13 301.94 C 449.58 298.39 449.78 293.12 452.81 289.91 Z" />
<path fill="#010101" opacity="1.00" d=" M 264.43 309.72 C 268.14 299.70 278.24 292.42 288.96 292.34 C 301.28 292.37 313.60 292.24 325.91 292.40 C 324.10 297.56 319.77 302.97 313.95 303.21 C 307.22 300.84 300.04 301.43 293.05 301.52 C 283.62 301.90 274.72 307.84 270.65 316.34 C 268.65 320.03 268.12 324.24 267.71 328.35 C 265.98 329.07 264.29 329.88 262.64 330.75 C 262.93 323.74 261.68 316.40 264.43 309.72 Z" />
<path fill="#010101" opacity="1.00" d=" M 329.13 301.00 C 333.62 302.36 335.57 307.56 336.17 311.82 C 336.46 318.10 336.16 324.40 336.31 330.69 C 334.55 329.77 332.76 328.96 330.94 328.21 C 330.87 320.41 327.41 312.63 321.25 307.77 C 324.32 306.04 326.47 303.15 329.13 301.00 Z" />
<path fill="#010101" opacity="1.00" d=" M 285.83 309.86 C 291.48 306.93 297.98 307.93 304.08 307.77 C 311.77 307.81 319.39 312.38 322.55 319.49 C 324.80 323.78 324.33 328.72 324.74 333.40 C 327.56 334.72 331.09 334.34 333.45 336.62 C 336.98 339.70 337.26 345.64 333.93 348.98 C 331.98 351.30 328.84 351.65 326.02 351.80 C 323.89 353.60 324.66 356.49 324.43 358.93 C 324.19 366.14 319.70 373.02 313.18 376.13 C 307.28 379.21 300.40 378.11 294.01 378.26 C 283.80 378.12 274.61 369.33 274.34 359.07 C 273.95 356.87 275.04 353.94 273.09 352.32 C 270.20 351.19 266.50 351.41 264.59 348.50 C 260.30 343.78 263.54 335.08 269.99 334.61 C 272.60 334.77 274.86 332.84 274.27 330.08 C 273.65 321.85 278.11 313.20 285.83 309.86 Z" />
<path fill="#010101" opacity="1.00" d=" M 204.56 321.37 C 215.36 321.25 226.16 321.29 236.96 321.32 C 244.01 321.30 250.47 325.10 255.31 329.96 C 257.24 334.83 255.87 340.48 255.57 345.62 C 252.56 339.67 248.55 333.65 242.16 330.97 C 236.17 327.95 229.34 328.80 222.89 328.72 C 219.78 328.68 216.88 329.97 213.84 330.37 C 209.35 329.25 206.34 325.42 204.56 321.37 Z" />
<path fill="#010101" opacity="1.00" d=" M 344.03 330.11 C 348.64 324.54 355.70 320.69 363.04 320.63 C 373.75 320.61 384.47 320.61 395.18 320.64 C 393.53 324.74 390.46 328.81 385.85 329.64 C 383.22 329.53 380.77 328.19 378.11 328.22 C 370.47 328.12 362.15 327.16 355.38 331.51 C 349.95 334.38 347.29 340.11 343.86 344.89 C 344.03 339.99 342.99 334.89 344.03 330.11 Z" />
<path fill="#010101" opacity="1.00" d=" M 398.46 328.03 C 402.31 330.17 404.50 334.58 404.48 338.92 C 404.59 343.89 404.50 348.86 404.52 353.83 C 403.19 353.23 401.86 352.65 400.53 352.10 C 400.30 345.27 397.36 338.59 392.16 334.11 C 394.58 332.45 396.73 330.41 398.46 328.03 Z" />
<path fill="#010101" opacity="1.00" d=" M 195.37 338.91 C 195.41 335.22 197.28 331.58 200.20 329.35 C 200.58 329.34 201.34 329.31 201.72 329.30 C 203.52 331.30 205.37 333.28 207.65 334.76 C 202.52 339.17 199.49 345.75 199.34 352.49 C 198.04 353.20 196.74 353.89 195.45 354.61 C 195.23 349.38 195.24 344.14 195.37 338.91 Z" />
<path fill="#010101" opacity="1.00" d=" M 214.24 337.19 C 219.37 334.29 225.45 335.37 231.07 335.19 C 238.99 334.89 246.51 340.53 248.69 348.11 C 249.66 351.07 249.24 354.23 249.59 357.28 C 250.93 359.50 254.01 358.69 256.00 359.94 C 260.52 362.25 261.31 369.18 257.51 372.46 C 255.75 374.22 253.13 374.19 250.88 374.81 C 248.86 375.76 249.65 378.23 249.40 380.00 C 249.63 387.62 244.35 394.95 237.13 397.29 C 232.58 398.90 227.69 398.17 222.98 398.33 C 215.23 398.47 207.72 393.24 205.35 385.84 C 204.15 382.71 204.59 379.31 204.24 376.05 C 202.78 373.61 199.30 374.89 197.33 373.09 C 193.21 370.45 192.93 363.75 196.81 360.79 C 198.69 359.14 201.29 359.03 203.61 358.53 C 204.86 355.86 204.22 352.87 204.68 350.05 C 205.77 344.65 209.22 339.63 214.24 337.19 Z" />
<path fill="#010101" opacity="1.00" d=" M 357.97 337.96 C 363.33 333.62 370.57 334.51 376.99 334.49 C 384.75 334.27 392.12 339.69 394.51 347.02 C 395.68 350.35 395.31 353.93 395.59 357.39 C 398.20 358.55 401.48 358.39 403.56 360.58 C 406.80 363.72 406.52 370.01 402.48 372.36 C 400.53 373.81 397.84 373.48 395.88 374.85 C 395.00 377.13 395.64 379.71 395.20 382.11 C 394.09 390.50 386.40 397.40 377.93 397.60 C 371.18 397.54 363.55 398.71 357.88 394.13 C 351.91 390.10 349.71 382.61 350.35 375.71 C 350.00 375.26 349.28 374.36 348.93 373.91 C 343.57 374.58 338.26 369.33 340.12 363.96 C 341.08 359.87 345.37 358.14 349.18 358.06 C 349.49 357.58 350.09 356.62 350.39 356.13 C 349.68 349.29 352.05 341.88 357.97 337.96 Z" />
<path fill="#010101" opacity="1.00" d=" M 290.51 384.39 C 296.83 384.79 303.19 384.84 309.51 384.26 C 309.01 389.63 310.90 395.86 307.33 400.49 C 303.53 405.54 294.65 404.81 291.76 399.16 C 289.58 394.56 290.82 389.29 290.51 384.39 Z" />
<path fill="#010101" opacity="1.00" d=" M 251.30 432.99 C 252.00 415.42 267.43 399.86 285.04 399.29 C 287.02 407.20 296.24 412.06 303.96 409.83 C 309.15 408.54 313.56 404.46 315.05 399.29 C 332.63 399.91 348.06 415.47 348.72 433.02 C 348.81 446.33 348.77 459.65 348.75 472.97 C 348.90 477.01 345.12 480.71 341.07 480.38 C 313.67 480.38 286.28 480.39 258.89 480.38 C 254.87 480.65 251.14 477.07 251.25 473.04 C 251.23 459.69 251.17 446.34 251.30 432.99 Z" />
<path fill="#010101" opacity="1.00" d=" M 219.15 403.24 C 224.54 403.65 229.95 403.48 235.35 403.41 C 234.95 407.99 236.52 413.41 233.29 417.27 C 229.76 421.59 221.93 420.51 219.80 415.27 C 218.66 411.38 219.30 407.24 219.15 403.24 Z" />
<path fill="#010101" opacity="1.00" d=" M 364.70 403.41 C 370.08 403.50 375.47 403.63 380.84 403.25 C 380.41 407.99 382.24 413.75 378.60 417.60 C 375.06 421.45 367.79 420.43 365.60 415.60 C 364.02 411.75 364.98 407.45 364.70 403.41 Z" />
<path fill="#010101" opacity="1.00" d=" M 386.76 416.37 C 401.40 417.71 414.27 429.87 415.71 444.61 C 416.14 452.40 415.77 460.23 415.91 468.04 C 415.82 470.78 416.21 473.63 415.31 476.28 C 413.91 478.91 411.00 480.68 407.98 480.39 C 389.74 480.38 371.50 480.37 353.26 480.40 C 354.34 477.74 355.43 474.99 355.27 472.06 C 355.23 459.36 355.32 446.66 355.22 433.96 C 355.20 428.43 353.39 423.19 351.90 417.94 C 354.21 417.23 356.55 416.61 358.97 416.36 C 361.08 422.55 367.38 427.09 374.01 426.39 C 379.87 426.04 384.64 421.64 386.76 416.37 Z" />
<path fill="#010101" opacity="1.00" d=" M 184.23 445.50 C 185.21 430.40 198.32 417.70 213.26 416.38 C 215.24 421.30 219.47 425.47 224.88 426.25 C 231.80 427.56 238.88 422.96 241.06 416.37 C 243.64 416.42 246.20 416.86 248.68 417.58 C 246.23 423.06 244.81 428.99 244.76 435.00 C 244.72 447.34 244.77 459.67 244.73 472.01 C 244.57 474.96 245.68 477.72 246.75 480.40 C 228.47 480.36 210.19 480.40 191.91 480.39 C 187.82 480.78 183.89 477.21 184.13 473.06 C 184.14 463.87 183.95 454.68 184.23 445.50 Z" />
</g>
</svg>
