<?xml version="1.0" encoding="UTF-8" ?>
<!DOCTYPE svg PUBLIC "-//W3C//DTD SVG 1.1//EN" "http://www.w3.org/Graphics/SVG/1.1/DTD/svg11.dtd">
<svg width="512pt" height="512pt" viewBox="0 0 512 512" version="1.1" xmlns="http://www.w3.org/2000/svg">
<g id="#000000ff">
<path fill="#000000" opacity="1.00" d=" M 218.22 41.19 C 231.27 33.34 246.80 29.67 261.98 30.96 C 280.79 32.37 298.81 41.55 311.18 55.77 C 322.38 68.43 328.96 85.09 329.37 102.00 C 330.33 126.70 317.60 151.12 297.18 164.91 C 301.43 172.31 305.73 179.69 309.99 187.09 C 321.92 175.34 333.87 163.61 345.82 151.87 C 366.42 172.48 387.06 193.07 407.65 213.70 C 390.11 230.84 372.37 247.77 355.05 265.14 C 366.53 285.09 378.06 305.00 389.55 324.94 C 386.10 326.96 382.63 328.94 379.17 330.94 C 368.17 311.96 357.25 292.93 346.25 273.96 C 343.29 277.50 338.46 279.99 337.57 284.87 C 334.46 297.05 331.70 309.46 325.74 320.64 C 329.75 324.41 334.43 328.30 335.42 334.06 C 337.09 341.45 333.06 349.08 326.66 352.80 C 328.42 355.91 330.07 359.29 329.99 362.97 C 330.34 371.03 324.05 378.71 316.09 379.99 C 312.38 380.81 308.63 379.83 305.15 378.55 C 302.97 382.18 300.04 385.56 295.96 387.04 C 290.11 389.54 283.31 387.96 278.40 384.17 C 275.94 388.00 272.44 391.39 267.92 392.55 C 264.26 393.72 260.41 393.06 256.81 392.07 C 252.93 396.01 248.86 400.63 242.97 401.18 C 234.80 402.55 226.89 396.63 224.82 388.82 C 215.40 389.27 206.90 381.85 205.87 372.52 C 196.06 372.14 187.82 363.43 188.19 353.58 C 184.52 352.36 180.81 350.73 178.34 347.63 C 173.32 341.92 173.01 332.68 177.70 326.68 C 180.14 323.65 183.11 321.10 185.80 318.30 C 179.61 307.38 176.93 295.04 174.10 282.95 C 173.68 280.83 172.84 278.85 171.79 276.99 C 170.56 278.09 169.37 279.22 168.16 280.35 C 146.60 258.10 125.05 235.83 103.48 213.58 C 124.16 192.99 144.63 172.20 165.45 151.76 C 176.76 163.88 188.27 175.82 199.67 187.86 C 204.31 179.92 208.93 171.97 213.59 164.04 C 201.49 155.31 191.94 143.03 186.93 128.96 C 180.94 112.45 181.16 93.78 187.60 77.45 C 193.42 62.41 204.43 49.51 218.22 41.19 M 211.70 61.68 C 200.18 73.61 193.75 90.37 194.68 106.97 C 195.16 118.85 199.35 130.46 206.26 140.11 C 206.38 133.74 206.15 127.37 206.37 121.00 C 206.69 114.00 210.60 107.37 216.43 103.54 C 221.40 100.04 227.66 99.55 233.55 99.80 C 226.34 91.95 223.60 80.22 227.19 70.10 C 231.01 58.44 242.71 49.90 255.02 50.07 C 267.89 49.78 280.12 59.02 283.52 71.41 C 286.50 81.25 283.59 92.24 276.76 99.80 C 281.09 99.73 285.57 99.68 289.65 101.37 C 297.98 104.52 303.95 113.02 303.97 121.95 C 304.08 128.76 303.98 135.58 304.02 142.39 C 312.77 131.27 317.71 117.18 317.39 103.01 C 317.20 85.34 308.72 68.06 295.11 56.85 C 284.47 48.03 270.82 42.86 256.99 42.73 C 240.13 42.34 223.31 49.48 211.70 61.68 M 250.46 62.67 C 243.93 64.44 238.71 70.27 237.81 77.00 C 236.05 86.73 244.09 96.65 253.93 97.06 C 264.62 98.16 274.41 87.65 272.49 77.05 C 271.30 66.94 260.22 59.67 250.46 62.67 M 224.63 112.71 C 220.64 114.38 218.14 118.65 218.31 122.93 C 218.23 132.82 218.33 142.71 218.29 152.60 C 220.99 154.54 223.77 156.36 226.62 158.06 C 226.62 151.11 226.63 144.15 226.64 137.20 C 230.64 137.20 234.63 137.20 238.63 137.21 C 238.64 145.82 238.62 154.44 238.64 163.06 C 249.69 166.26 261.55 166.27 272.65 163.30 C 272.74 154.71 272.64 146.13 272.69 137.54 C 276.69 137.54 280.68 137.53 284.67 137.51 C 284.71 144.49 284.65 151.47 284.71 158.45 C 287.20 157.00 289.63 155.47 292.02 153.87 C 291.94 143.56 292.08 133.25 291.99 122.94 C 292.11 119.31 290.40 115.64 287.32 113.64 C 284.04 111.30 279.79 111.87 276.00 111.77 C 268.87 121.18 261.73 130.58 254.59 139.98 C 248.30 130.58 241.99 121.20 235.71 111.80 C 232.02 111.88 228.15 111.36 224.63 112.71 M 250.16 111.81 C 251.83 114.32 253.51 116.83 255.20 119.33 C 257.11 116.83 259.01 114.32 260.90 111.81 C 257.32 111.79 253.74 111.79 250.16 111.81 M 120.32 213.71 C 131.99 225.75 143.65 237.80 155.32 249.84 C 170.24 235.07 185.14 220.28 200.05 205.49 C 188.23 193.47 176.78 181.09 165.10 168.93 C 150.16 183.84 135.26 198.79 120.32 213.71 M 295.50 218.14 C 310.44 233.07 325.36 248.00 340.29 262.92 C 356.81 246.24 373.71 229.95 390.54 213.59 C 375.65 198.62 360.67 183.73 345.77 168.78 C 328.97 185.19 312.26 201.69 295.50 218.14 M 208.35 196.78 C 215.58 204.02 222.83 211.25 230.06 218.49 C 228.97 219.61 227.86 220.73 226.78 221.86 C 230.34 224.70 234.63 226.31 238.71 228.24 C 251.28 224.15 264.50 222.52 277.22 219.05 C 285.43 211.57 293.13 203.49 301.14 195.77 C 296.33 187.46 291.55 179.13 286.72 170.83 C 267.02 179.93 243.40 179.72 223.91 170.18 C 218.72 179.05 213.55 187.92 208.35 196.78 M 163.69 258.48 C 165.23 260.08 166.78 261.68 168.33 263.28 C 183.28 248.40 198.16 233.45 213.09 218.55 C 211.60 217.02 210.09 215.50 208.60 213.97 C 193.58 228.76 178.63 243.62 163.69 258.48 M 281.45 230.62 C 270.34 233.11 259.15 235.29 248.07 237.95 C 240.34 240.03 232.35 242.80 226.65 248.69 C 220.01 255.36 213.34 262.01 206.67 268.64 C 205.31 270.04 203.59 271.70 204.18 273.87 C 204.64 277.42 209.48 280.00 212.29 277.30 C 218.72 271.22 224.80 264.77 231.14 258.60 C 246.38 266.74 265.29 267.36 281.15 260.57 C 282.75 264.24 284.36 267.91 285.94 271.59 C 283.68 272.45 281.41 273.30 279.15 274.14 C 291.70 286.62 304.24 299.10 316.77 311.59 C 322.12 300.43 323.94 288.06 327.53 276.31 C 328.44 274.31 330.31 272.98 331.78 271.41 C 316.88 256.47 301.94 241.57 287.02 226.65 C 285.33 228.17 283.84 230.22 281.45 230.62 M 218.37 230.21 C 205.57 243.03 192.75 255.84 179.94 268.65 C 181.46 270.36 183.61 271.75 184.20 274.08 C 187.50 285.86 189.13 298.24 194.67 309.27 C 198.26 316.63 203.17 323.31 208.96 329.08 C 225.45 345.59 241.98 362.06 258.45 378.60 C 259.72 379.80 261.13 381.16 263.01 381.21 C 265.83 381.42 268.39 378.86 268.26 376.05 C 268.28 374.11 266.85 372.65 265.62 371.35 C 255.25 361.01 244.89 350.67 234.57 340.29 C 237.40 337.48 240.21 334.65 243.04 331.84 C 256.91 345.70 270.79 359.54 284.62 373.44 C 286.08 374.83 287.74 376.50 289.95 376.25 C 292.63 376.15 294.89 373.62 294.66 370.93 C 294.61 368.95 293.05 367.56 291.82 366.20 C 278.36 352.82 264.97 339.36 251.53 325.95 C 254.35 323.11 257.18 320.27 260.02 317.45 C 276.10 333.58 292.24 349.63 308.30 365.77 C 309.95 367.59 312.52 369.07 314.98 367.87 C 318.29 366.61 319.02 361.81 316.38 359.51 C 299.43 342.42 282.34 325.47 265.35 308.42 C 268.18 305.59 270.99 302.76 273.83 299.94 C 286.05 312.13 298.25 324.34 310.44 336.55 C 312.87 338.66 314.74 341.92 318.04 342.66 C 322.64 343.40 325.82 336.92 322.14 333.91 C 303.14 314.91 284.08 295.97 265.03 277.02 C 254.39 277.97 243.66 276.44 233.57 273.02 C 229.37 277.32 225.15 281.61 220.85 285.80 C 217.75 288.85 213.41 290.51 209.06 290.39 C 200.34 290.35 192.49 282.78 192.15 274.05 C 191.66 268.72 194.27 263.61 198.20 260.14 C 207.02 251.84 214.86 242.45 224.40 234.95 C 222.17 233.67 220.18 232.04 218.37 230.21 M 192.49 328.57 C 190.49 330.66 188.11 332.49 186.65 335.04 C 185.06 338.74 189.24 342.94 192.95 341.36 C 195.33 340.08 197.02 337.88 198.94 336.03 C 196.73 333.60 194.58 331.11 192.49 328.57 M 200.52 352.42 C 198.95 356.79 203.56 361.61 208.00 360.17 C 211.39 358.84 213.50 355.59 216.11 353.21 C 213.22 350.31 210.33 347.42 207.42 344.53 C 205.08 347.09 201.97 349.17 200.52 352.42 M 224.60 361.71 C 222.40 364.08 219.55 366.04 218.18 369.05 C 216.57 373.38 221.29 378.03 225.59 376.41 C 228.59 375.04 230.54 372.20 232.90 370.01 C 230.14 367.23 227.38 364.46 224.60 361.71 M 236.67 383.97 C 235.71 387.01 238.92 390.22 241.96 389.18 C 244.17 388.15 245.67 386.13 247.42 384.52 C 245.42 382.50 243.41 380.50 241.41 378.49 C 239.74 380.22 237.72 381.75 236.67 383.97 Z" />
<path fill="#000000" opacity="1.00" d=" M 147.36 278.84 C 150.83 280.82 154.29 282.81 157.74 284.82 C 146.81 303.77 135.88 322.72 124.93 341.66 C 139.02 348.59 150.93 359.95 158.17 373.91 C 164.84 386.46 167.47 400.95 166.25 415.06 C 226.08 415.07 285.91 415.07 345.75 415.06 C 344.55 401.39 346.96 387.36 353.19 375.09 C 361.03 359.36 374.70 346.60 391.00 339.98 C 405.09 334.09 421.06 332.92 435.91 336.46 C 450.03 339.79 463.06 347.50 472.85 358.19 C 483.42 369.60 490.22 384.46 491.84 399.94 C 493.63 416.01 489.89 432.64 481.33 446.37 C 472.01 461.53 457.02 473.13 439.94 478.19 C 422.12 483.59 402.26 481.81 385.69 473.30 C 367.36 464.10 353.39 446.85 347.99 427.07 C 286.66 427.06 225.33 427.07 164.00 427.06 C 159.58 443.05 149.70 457.48 136.24 467.20 C 122.76 477.17 105.72 482.08 89.01 481.16 C 73.08 480.34 57.51 474.03 45.43 463.62 C 34.81 454.54 26.81 442.38 22.82 428.98 C 17.91 412.80 18.86 394.91 25.49 379.35 C 31.89 364.08 43.68 351.16 58.24 343.29 C 74.96 334.12 95.25 332.07 113.54 337.35 C 124.86 317.87 136.07 298.33 147.36 278.84 M 51.66 362.67 C 38.60 374.55 30.99 392.29 31.78 409.97 C 32.12 422.12 36.35 434.03 43.41 443.89 C 44.13 433.56 41.05 421.80 47.75 412.85 C 52.81 405.51 62.10 402.74 70.65 403.53 C 63.94 396.14 61.06 385.43 63.74 375.74 C 66.98 362.91 79.67 353.26 92.95 353.83 C 105.51 353.89 117.25 362.99 120.62 375.06 C 123.64 384.90 120.76 395.95 113.91 403.52 C 118.25 403.49 122.76 403.43 126.84 405.15 C 134.90 408.23 140.79 416.32 141.06 424.98 C 141.27 432.02 141.06 439.07 141.16 446.12 C 149.85 435.08 154.77 421.12 154.52 407.05 C 154.42 390.04 146.66 373.33 133.95 362.08 C 123.07 352.33 108.63 346.59 93.99 346.48 C 78.49 346.15 63.04 352.17 51.66 362.67 M 373.10 367.03 C 362.64 378.65 356.83 394.37 357.51 410.02 C 357.88 422.14 362.08 434.02 369.13 443.86 C 369.25 437.53 369.01 431.21 369.23 424.89 C 369.50 418.13 373.13 411.67 378.63 407.78 C 383.68 403.91 390.24 403.27 396.40 403.51 C 393.58 400.16 391.14 396.43 389.85 392.21 C 385.72 379.77 391.14 365.08 402.36 358.31 C 414.53 350.33 432.25 353.36 441.08 364.93 C 450.23 375.89 449.40 393.21 439.63 403.52 C 444.02 403.50 448.58 403.44 452.70 405.19 C 460.69 408.32 466.49 416.34 466.80 424.94 C 467.00 431.99 466.78 439.05 466.89 446.11 C 478.85 431.15 483.28 410.51 478.19 392.01 C 474.06 376.65 463.77 363.06 450.04 355.02 C 439.55 348.77 427.17 345.77 414.98 346.59 C 399.05 347.51 383.68 355.11 373.10 367.03 M 87.38 366.49 C 80.85 368.33 75.70 374.27 74.91 381.03 C 73.93 387.69 77.26 394.69 83.01 398.18 C 89.06 402.13 97.53 401.63 103.12 397.07 C 109.19 392.42 111.53 383.61 108.46 376.59 C 105.27 368.54 95.67 363.89 87.38 366.49 M 414.18 366.22 C 406.81 367.77 400.96 374.52 400.54 382.06 C 399.52 391.83 408.20 401.15 418.02 400.84 C 427.85 401.14 436.51 391.81 435.49 382.01 C 435.03 371.73 424.18 363.63 414.18 366.22 M 55.48 425.95 C 55.33 436.09 55.46 446.23 55.44 456.37 C 58.14 458.29 60.91 460.11 63.76 461.82 C 63.75 454.88 63.77 447.94 63.77 441.01 C 67.77 440.99 71.77 440.99 75.77 441.01 C 75.77 449.61 75.75 458.22 75.78 466.83 C 86.85 469.97 98.72 470.07 109.82 466.99 C 109.83 458.42 109.78 449.84 109.83 441.27 C 113.82 441.27 117.82 441.26 121.81 441.26 C 121.82 448.24 121.80 455.21 121.83 462.18 C 124.28 460.75 126.69 459.26 129.09 457.74 C 129.18 447.49 129.14 437.23 129.13 426.98 C 129.28 423.29 127.68 419.53 124.56 417.46 C 120.97 414.92 116.36 415.60 112.23 415.55 C 105.36 424.50 98.78 433.68 91.64 442.42 C 85.72 433.43 79.63 424.55 73.71 415.57 C 70.47 415.54 67.19 415.32 63.97 415.82 C 59.18 416.59 55.46 421.13 55.48 425.95 M 88.11 415.54 C 89.52 417.66 90.94 419.78 92.37 421.90 C 93.99 419.79 95.59 417.66 97.20 415.54 C 94.17 415.53 91.14 415.53 88.11 415.54 M 386.82 416.78 C 383.11 418.66 380.98 422.80 381.16 426.89 C 381.18 436.74 381.09 446.58 381.21 456.43 C 383.91 458.32 386.66 460.12 389.49 461.82 C 389.51 454.88 389.47 447.94 389.51 441.00 C 393.50 441.00 397.50 440.99 401.50 440.99 C 401.50 449.60 401.50 458.21 401.51 466.83 C 412.58 469.95 424.45 470.09 435.55 466.98 C 435.60 458.39 435.46 449.79 435.63 441.20 C 439.60 441.28 443.57 441.28 447.55 441.27 C 447.56 448.24 447.54 455.21 447.57 462.19 C 450.04 460.75 452.47 459.24 454.86 457.68 C 454.85 447.43 454.91 437.18 454.85 426.93 C 454.98 423.33 453.46 419.64 450.45 417.57 C 446.88 414.89 442.15 415.64 437.98 415.52 C 431.12 424.52 424.31 433.56 417.45 442.56 C 411.43 433.53 405.38 424.52 399.32 415.52 C 395.16 415.68 390.69 414.89 386.82 416.78 M 413.81 415.54 C 415.21 417.66 416.64 419.77 418.06 421.89 C 419.67 419.77 421.28 417.66 422.88 415.54 C 419.86 415.53 416.83 415.53 413.81 415.54 Z" />
</g>
</svg>
