<?xml version="1.0" encoding="iso-8859-1"?>
<!-- Generator: Adobe Illustrator 19.0.0, SVG Export Plug-In . SVG Version: 6.00 Build 0)  -->
<svg version="1.1" id="Capa_1" xmlns="http://www.w3.org/2000/svg" xmlns:xlink="http://www.w3.org/1999/xlink" x="0px" y="0px"
	 viewBox="0 0 512.046 512.046" style="enable-background:new 0 0 512.046 512.046;" xml:space="preserve">
<g>
	<g>
		<g>
			<path d="M115.567,336.046H74.655l40.912-109.088v-26.912c0.055-92.837,75.359-168.051,168.196-167.996
				c23.806,0.014,47.337,5.085,69.036,14.876l13.184-29.168c-100.738-45.455-219.252-0.639-264.707,100.099
				c-11.656,25.833-17.693,53.848-17.709,82.189v21.088L28.479,368.046h55.088v80h80v64h32v-96h-80V336.046z"/>
			<path d="M434.831,126.83l28.8-13.968c-5.065-10.428-11.017-20.401-17.792-29.808l-25.952,18.752
				C425.575,109.705,430.575,118.077,434.831,126.83z"/>
			<path d="M475.983,145.358l-30.816,8.72c4.226,14.958,6.379,30.425,6.4,45.968c0.006,63.17-22.924,124.194-64.528,171.728
				l-47.472,54.256v86.016h32v-73.984l39.568-45.216c46.703-53.37,72.442-121.881,72.432-192.8
				C483.57,181.555,481.018,163.151,475.983,145.358z"/>
			<path d="M423.135,56.798c-8.302-8.101-17.29-15.467-26.864-22.016l-18.064,26.432c8.053,5.492,15.607,11.681,22.576,18.496
				L423.135,56.798z"/>
			<path d="M400.207,247.678l-24.544-33.6v-12.224l24.544-33.6l-28.016-48.48l-41.28,4.48l-10.544-5.952l-16.8-38h-56l-16.8,38
				l-10.592,6.112l-41.28-4.48l-27.968,48.48l24.544,33.6v12.224l-24.544,33.6l28.016,48.48l41.28-4.48l10.592,6.112l16.752,38h56
				l16.8-38.16l10.592-6.112l41.28,4.48L400.207,247.678z M354.911,262.094l-30.944-3.36l-28.72,16.512l-12.56,28.48h-14.24
				l-12.56-28.48l-28.72-16.576l-30.944,3.36l-7.136-12.368l18.384-25.104V191.47l-18.304-25.024l7.136-12.368l30.944,3.36
				l28.64-16.592l12.56-28.48h14.24l12.56,28.48l28.72,16.576l30.944-3.36l7.136,12.368l-18.384,25.104v33.152l18.384,25.04
				L354.911,262.094z"/>
			<rect x="259.567" y="192.046" width="32" height="32"/>
		</g>
	</g>
</g>
<g>
</g>
<g>
</g>
<g>
</g>
<g>
</g>
<g>
</g>
<g>
</g>
<g>
</g>
<g>
</g>
<g>
</g>
<g>
</g>
<g>
</g>
<g>
</g>
<g>
</g>
<g>
</g>
<g>
</g>
</svg>
